<svg xmlns="http://www.w3.org/2000/svg" viewBox="0 0 47.06 58.84"><defs><style>.cls-1{fill:#fff;}</style></defs><g id="Camada_2" data-name="Camada 2"><g id="Camada_1-2" data-name="Camada 1"><path class="cls-1" d="M4.68,58.84c.34-.33.68-.67,1-1L7,56.67,4.27,55.18l0-.07,3-.36-.88-1.69A46.64,46.64,0,0,1,18,49.92a44.56,44.56,0,0,1,23,3.16l-.87,1.67,3,.36,0,.07-2.76,1.49.7.63,1.44,1.27a1.78,1.78,0,0,1,.21.27h-.14c-.06,0-.11-.05-.17-.05l-4-.46-1.23-.14a2.22,2.22,0,0,1,0-.41c.06-.23-.05-.32-.23-.41a31.9,31.9,0,0,0-8.64-2.59,33.91,33.91,0,0,0-7-.25A31,31,0,0,0,10.8,57.19c-.44.2-.81.36-.64.94l0,0-.28,0L7,58.56l-2.15.28Zm32.8-4.46a.66.66,0,0,1,.61.54c0,.25.14.49.17.73.06.4.33.48.62.53l-.47-1.59c.39-.05.69-.17.75-.57a.8.8,0,0,0-.55-.83c-.39-.17-.79-.29-1.13-.42a6,6,0,0,1-.14.75c-.12.4-.27.79-.4,1.18s-.16.5-.48.6l.9.31C37,55.12,37.46,54.79,37.48,54.38Zm-4.91-1.66c.61-.28.74-.79.26-1.12a3.53,3.53,0,0,0-1.59-.42,2.92,2.92,0,0,1,.08.61,10.74,10.74,0,0,1-.23,1.26c-.06.27-.17.52-.27.82a12.8,12.8,0,0,0,1.49.2.91.91,0,0,0,.59-.37c.18-.23.06-.5-.1-.72A2.53,2.53,0,0,0,32.57,52.72Zm3-.52a1.37,1.37,0,0,0-1.67.14,1.41,1.41,0,0,0-.19,1.8,1.64,1.64,0,0,0,1.95.59,1.36,1.36,0,0,0,.86-1.57,1.15,1.15,0,0,0-1-1,.59.59,0,0,0,.09.11c.8.49.47,1.93-.31,2.27a1.18,1.18,0,0,1-.62.07,1.08,1.08,0,0,1-.77-1.33c.12-.73.59-1.19,1.18-1.16Zm-20.79-.59c.3.14.25.31.13.51s-.22.39-.35.64c-.25-.34-.77-.37-.73-.94l-.86.27,1.43,1-.78,1.56.81-.2c-.34-.26-.29-.57.16-1.16.67.42.77.57.59,1l1.06-.23-1.31-1c-.06-.06-.13-.23-.1-.29.26-.44.35-1,.84-1.32Zm-1.47,3.11a5.57,5.57,0,0,1-.49-.45c-.42-.54-.82-1.1-1.25-1.64a.41.41,0,0,0-.34-.14c-.06,0-.14.19-.14.3,0,.5,0,1-.05,1.49s-.08.79-.12,1.2l.63-.22c-.55-.25-.22-.68-.35-1.07.33,0,.69-.21.9-.1s.35.49.55.81Zm7.57-4.1c.06.18.17.32.14.42-.14.54-.31,1.07-.5,1.67-.26-.51-.49-.94-.72-1.38-.1-.2-.29-.39.13-.56l-.11-.05-1,.11c.19.24.38.45.53.68s.4.75.6,1.13l.47.88c.06-.18.1-.26.13-.35.15-.5.29-1,.45-1.49s.19-.82.6-1.06Zm1.23,2.61.63.07a.81.81,0,0,0,.93-.47.76.76,0,0,0-.36-1,6.12,6.12,0,0,1-.69-.43.76.76,0,0,1-.25-.52c0-.27.33-.32.54-.25a2.77,2.77,0,0,1,.63.42v-.53L23,50.48a.76.76,0,0,0-.48,1.45,4.39,4.39,0,0,1,.68.44.55.55,0,0,1,.15.46.67.67,0,0,1-.41.32.55.55,0,0,1-.63-.3c-.05-.07-.09-.14-.19-.31Zm6.31-.48.09,0,.27-.39c.27.09.68.1.8.29a.63.63,0,0,1-.1.94l.86.12a7.66,7.66,0,0,1-.25-.77c-.14-.61-.25-1.23-.38-1.85,0-.1-.14-.24-.22-.25a.38.38,0,0,0-.28.19c-.25.46-.47.93-.7,1.4A1.52,1.52,0,0,0,28.38,52.75Zm-.75.17c-.3.43-.71.23-1.09.23s-.32-.13-.3-.37c0-.49,0-1,.1-1.46a3.82,3.82,0,0,1,.21-.71l-.93,0a3.12,3.12,0,0,1-.09,2.7c.54,0,1.08.05,1.6.12C27.49,53.43,27.63,53.29,27.63,52.92ZM17.59,51a3.14,3.14,0,0,1,.27.56c.1.44.16.88.22,1.33,0,.27.14.56-.15.8l1-.14a2.87,2.87,0,0,1-.32-2.7Zm-9.7,2.73c.67.1.61.68.79,1.06a12,12,0,0,1,.49,1.32l.54-.23a2.68,2.68,0,0,1-.54-1.24,5.66,5.66,0,0,0-.61-1.2Zm1.59.86A.86.86,0,0,0,10.3,54a.64.64,0,0,0-.33-.69.91.91,0,0,0-1,.13c.38,0,.7,0,.88.32S9.74,54.34,9.48,54.6Zm19-1.1,0-.67-.43.71-.14-.11Zm-4.38-1h1.08A.9.9,0,0,0,24.05,52.47Z"/><path class="cls-1" d="M24.46,0l.88.11V.55l.74.08.15-.47,1.91.36c-.31.85-.34,1.81-1.51,2,.12.36.22.69.35,1a.31.31,0,0,0,.24.15l4.2.58a.33.33,0,0,0,.24-.1c.09-.09.14-.22.23-.31A.68.68,0,0,0,32.05,3a5.27,5.27,0,0,1,0-1.32l3.12.88L35,3.08l.71.3L36,3l1.78.87A7,7,0,0,1,36.94,5a2,2,0,0,1-.94.31c-.18,0-.29.06-.38.24-.44.87-.91,1.72-1.36,2.59-.12.24-.24.29-.49.2A26.36,26.36,0,0,0,27.52,7c-1.73-.15-3.47-.18-5.2-.16a28.31,28.31,0,0,0-7.14,1.08c-.5.13-1,.29-1.49.46a.31.31,0,0,1-.45-.18c-.44-.87-.91-1.72-1.36-2.59a.42.42,0,0,0-.44-.26,1.19,1.19,0,0,1-1.16-.63c-.16-.27-.35-.53-.56-.84L11.49,3l.25.42.74-.3-.18-.47,3.12-.88c0,.58.23,1.06,0,1.54a.3.3,0,0,0,0,.24,1,1,0,0,0,1.28.61c1.13-.25,2.3-.33,3.46-.47a.43.43,0,0,0,.43-.33c.07-.27.18-.53.29-.84-1.16-.12-1.22-1.08-1.51-2l1.9-.36.13.46.76-.06V.11L23,0Zm0,3.48a6.26,6.26,0,0,0,0-1,.66.66,0,0,0-.7-.57.67.67,0,0,0-.74.59,7.47,7.47,0,0,0,0,1ZM34.3,5.94a2,2,0,0,0,.13-.24,4.49,4.49,0,0,0,.24-.56.73.73,0,0,0-.32-.89.74.74,0,0,0-1,.26,7.61,7.61,0,0,0-.38.87ZM14.48,5.38c-.14-.31-.23-.59-.38-.85a.72.72,0,0,0-.93-.29.73.73,0,0,0-.35.91,7.65,7.65,0,0,0,.35.79Z"/><path class="cls-1" d="M39.79,27.19v.54c0,2,0,3.93-.07,5.89a14,14,0,0,1-1.08,4.77,15.78,15.78,0,0,1-5.09,6.71,15.6,15.6,0,0,1-8.88,3.31l-.85.06V43.15l-.38,0H12.09a.59.59,0,0,1-.4-.14,15.72,15.72,0,0,1-3-5s0-.07,0-.18c1-.09,2,0,3,0h12.1V32.43h-16V11.08h16V21c.43.13.85.22,1.25.36a2,2,0,0,1,.67.37.44.44,0,0,0,.61.08c.73-.36,1.48-.7,2.23-1a1.57,1.57,0,0,1,1.74.24A.53.53,0,0,0,31,21a9.6,9.6,0,0,1,1.32-1,3,3,0,0,1,1.28-.36,6.42,6.42,0,0,0,3.18-.74,2.73,2.73,0,0,1,2.93.48.58.58,0,0,1,.1.35c0,1,0,1.9,0,2.86,0,.33-.12.4-.41.4a14.92,14.92,0,0,0-3.94.54c-.92.25-1.82.53-2.74.78a2.55,2.55,0,0,1-.62,0c.16-.55.16-.55-.31-.73a9.19,9.19,0,0,0-4.42-.74l-.26,0c1,.85,2.34.76,3.43,1.3a3.33,3.33,0,0,1-1.61.81c-1.43.33-2.87.62-4.31.92l-.86.18v5.09a3.26,3.26,0,0,1,3.14-.66,4.85,4.85,0,0,0,3.58-.65,8.82,8.82,0,0,1,2.76-1.1c1.17-.28,2.35-.52,3.51-.8.88-.21,1.74-.45,2.61-.69Zm-12.2,10a.45.45,0,0,0-.05.13c0,1.63,0,3.26,0,4.89A2.9,2.9,0,0,0,30.64,45a2.94,2.94,0,0,0,2.82-3.11c0-1.44,0-2.88,0-4.31v-.4a5.18,5.18,0,0,0-1,0c-.57.1-.85-.22-1.09-.65a.28.28,0,0,1,.05-.4,1.23,1.23,0,0,0,.19-1.57.79.79,0,0,0-1.15-.42,5,5,0,0,0-1.68,1.06c-.61.71-.6.89.32,1.19.28.09.6.32.86-.06a.59.59,0,0,1-.52.84ZM16,22.31a3,3,0,0,1,.3.28c1.21,1.21,2.42,2.43,3.64,3.62a1.15,1.15,0,0,1,.47,1.08.41.41,0,0,0,.06.2l.37,0,0-.63.61-.05v-.43h-.37a.74.74,0,0,1-.68-.28c-1.14-1.16-2.3-2.31-3.46-3.45-.29-.29-.61-.55-.92-.83l4-4a.9.9,0,0,1,.65-.38.21.21,0,0,0,.19-.12c.11-.3.21-.62.31-.92-.49.17-1.16,0-1.18.78,0,.07-.1.13-.16.19L16.17,21a1.14,1.14,0,0,1-.22.16c0-1.75,0-3.45,0-5.15a.92.92,0,0,1,.22-.76.2.2,0,0,0,0-.18c-.15-.31-.31-.61-.49-1l-.27.5c-.16.29-.35.57,0,.89.08.07.08.26.08.4v4.93c0,.1,0,.2,0,.35l-.26-.23q-1.72-1.74-3.46-3.46c-.18-.18-.36-.34-.34-.63a.29.29,0,0,0-.16-.2c-.28-.11-.57-.19-1-.32.14.4.23.71.34,1a.21.21,0,0,0,.17.1c.33,0,.51.22.71.42,1.29,1.28,2.57,2.57,3.87,3.87l-.25.27c-1.27,1.27-2.55,2.52-3.81,3.81a1.33,1.33,0,0,1-1.25.55l-.08,0v.38l.65.05,0,.66.41,0a2.81,2.81,0,0,1,0-.51.9.9,0,0,1,.19-.46c1.24-1.26,2.49-2.5,3.73-3.74l.5-.48v5.1c0,.62.13,1.28-.61,1.66l.34.33.47-.43.42.38.46-.26c-.7-.34-.67-.87-.66-1.42,0-.82,0-1.64,0-2.47Zm4.26,20.1c.21.05.22-.15.25-.33a2.28,2.28,0,0,1,.13-.76.86.86,0,0,0,.07-.54c0-.18,0-.36,0-.55,0-1-.08-1.28-1.08-1.35-.42,0-.85.07-1.28.07-.66,0-1.32,0-2,0-.21,0-.47,0-.53-.33,0-.11-.52,0-.61.1s-.27.36-.4.55a4,4,0,0,0-.17.36,1.16,1.16,0,0,0,.39.09.8.8,0,0,1,.88.45,5.78,5.78,0,0,0,.47.8,1.57,1.57,0,0,1,.27,1.48.51.51,0,0,0,.26-.26,2,2,0,0,0,.07-.49c.07-.56.2-.65.76-.63.39,0,.79,0,1.18,0a3.18,3.18,0,0,1,.58.17c.13,0,.31.18.37.14.37-.29.34.08.36.23A5.21,5.21,0,0,1,20.21,42.41Z"/><path class="cls-1" d="M42.66,31c.17-.7.33-1.4.5-2.1,0-.17.09-.34.14-.51.16-.68.16-.68.9-.47l.08.45a7.06,7.06,0,0,0-.54-4.62l-.86,1-.07,0c0-.3.07-.6.1-.9.08-.68.15-1.37.23-2,0-.16,0-.37.25-.33s.54-.16.63.25.2.65.31,1h.11a20.81,20.81,0,0,0-.25-2.76,19.13,19.13,0,0,0-1-2.68l-.84,1.29-.12-3.38s0,0,.08,0c.63-.13.63-.13.92.45.1.19.19.38.28.58s.17.38.23.5l-.41-5.32h.09A25.49,25.49,0,0,1,44.76,16l.19-1.3a3.54,3.54,0,0,1,.56,0,.28.28,0,0,1,.23.15c.33,1.11.64,2.23,1,3.35l-.09,0-1-1.1a9.38,9.38,0,0,0-.18,4.53c.08-.44.41-.25.63-.29s.25.16.28.31c.23,1,.46,1.92.68,2.88a3.46,3.46,0,0,1,.06.41L46,23.8c-.72,1.94-.49,4-.69,5.95L46,28.2l.75.1.16,3.36-.09,0L46,30.53a8.79,8.79,0,0,0-1.61,4.11c.13-.58.5-.55,1-.36L45,37.8h-.11l-.5-1.25a16.5,16.5,0,0,0-2.35,4.5c.15-.2.31-.39.44-.6s.4-.08.6,0,.19.2.14.36c-.34,1.06-.67,2.12-1,3.18h-.1l-.25-1.39a20.29,20.29,0,0,0-3.7,4.77c.38-.35.8-.66,1.14-1a.53.53,0,0,1,.82-.09l.29.17L38.9,49.54l-.12,0-.19-1.39L37,49.17a7.46,7.46,0,0,1-.81.52.48.48,0,0,1-.39,0c-.51-.27-.51-.28-.2-.79s.55-.91.82-1.38a2.65,2.65,0,0,0,.13-.31L35,47.58l2.34-2.5c.22-.23.81,0,.89.38A9,9,0,0,0,40,41.61l-1.47.47,0-.06c.4-.42.8-.83,1.18-1.26s.53-.64.78-1a.54.54,0,0,1,.94.08,6.29,6.29,0,0,0,.92-3.79L41,36.89c.34-.69.63-1.28.91-1.87a8.78,8.78,0,0,0,.41-1c.11-.37.37-.19.58-.19s.28.12.26.32,0,.31,0,.47a9.38,9.38,0,0,0,.61-4.47l-1.06.87Z"/><path class="cls-1" d="M13.78,10l-.57-1.07a32.3,32.3,0,0,1,21.07,0L33.71,10A32.24,32.24,0,0,0,13.78,10Z"/><path class="cls-1" d="M1.68,10.27c.76.33,1,1,1.29,1.64A5.3,5.3,0,0,1,4.69,9.13a6.34,6.34,0,0,1-.29,3.31c.36-.14.71-.3,1.07-.4a1.07,1.07,0,0,1,.56,0,.29.29,0,0,1,.15.25,3.93,3.93,0,0,1-1.81,2.5c-1.22.63-1.67.49-2.4-.63a4.31,4.31,0,0,1-.47-2.8C1.53,11,1.62,10.69,1.68,10.27Z"/><path class="cls-1" d="M1.45,20.89c.11-.54.17-1,.31-1.51s.34-.89.51-1.32a4.6,4.6,0,0,1-.47-.55.58.58,0,0,1,0-.41.59.59,0,0,1,.66-.42.81.81,0,0,1,.7.67c0,.33-.15.54-.68.74A6.1,6.1,0,0,1,2.9,21a6.82,6.82,0,0,1,.71-.57,1.63,1.63,0,0,1,.59-.22c.08,0,.26.14.26.22a3.71,3.71,0,0,1-1.68,3.23A1.26,1.26,0,0,1,1,23.29a4.39,4.39,0,0,1-1-3c0-.13,0-.26,0-.39a.46.46,0,0,1,0-.13C.73,19.88,1,20.43,1.45,20.89Z"/><path class="cls-1" d="M7,47.66a.9.9,0,0,1,.86-.29c.31,0,.61.08,1,.13a6,6,0,0,1-1.18-3A5.74,5.74,0,0,1,10,46.58c.06-.33.11-.64.17-.94a1,1,0,0,1,.5-.77,4.43,4.43,0,0,1,1,4.2,1.15,1.15,0,0,1-1.05.75A2.74,2.74,0,0,1,9,49.46,6.13,6.13,0,0,1,7,47.66Z"/><path class="cls-1" d="M.1,29.45c.72,0,1.12.53,1.64,1,0-1.13-.16-2.27.48-3.33a6.55,6.55,0,0,1,1,3.21c.4-.5.7-1.1,1.46-1.15A4.91,4.91,0,0,1,4.34,32a3.4,3.4,0,0,1-.72,1,1,1,0,0,1-1.42.19A3.26,3.26,0,0,1,.88,31.94,5.8,5.8,0,0,1,.1,29.45Z"/><path class="cls-1" d="M31.17,14c.11-.34.19-.63.3-.9.05-.11.2-.28.28-.27a.5.5,0,0,1,.31.28,7.41,7.41,0,0,1,.28.9c.21-.1.38-.2.56-.27s.46-.39.7-.15,0,.5-.15.74-.15.31-.25.51c.3.1.58.17.85.29a1.41,1.41,0,0,1,.34.31c-.11.11-.21.26-.34.31a7.25,7.25,0,0,1-.86.28,7.18,7.18,0,0,1,.37.73,2.26,2.26,0,0,1,.07.53,1.84,1.84,0,0,1-.53-.05,4.63,4.63,0,0,1-.74-.37,8.52,8.52,0,0,1-.27.81,2.24,2.24,0,0,1-.31.38,1.4,1.4,0,0,1-.33-.36,7.68,7.68,0,0,1-.29-.82,6.93,6.93,0,0,1-.78.38,1.59,1.59,0,0,1-.49,0,1.71,1.71,0,0,1,.05-.46,7.88,7.88,0,0,1,.38-.78c-.28-.1-.53-.16-.76-.27a2.18,2.18,0,0,1-.43-.32,2.12,2.12,0,0,1,.4-.34c.24-.11.49-.17.78-.27-.14-.3-.29-.56-.4-.84a1.24,1.24,0,0,1,0-.43,1.23,1.23,0,0,1,.43,0C30.61,13.71,30.87,13.86,31.17,14Z"/><path class="cls-1" d="M2.34,39a2.39,2.39,0,0,1,1.83.44c-.26-1-.75-2-.42-3,.58.3,1,1,1.75,2.55,0-.13.07-.24.12-.34a5.37,5.37,0,0,1,.43-.73c.34-.4.54-.35.71.14a3.76,3.76,0,0,1,.09,2.74,3.07,3.07,0,0,1-.57.93c-.3.35-.73.24-1.1.16a3.6,3.6,0,0,1-2.12-1.64C2.8,39.84,2.59,39.43,2.34,39Z"/><path class="cls-1" d="M15.07,34.6l-3.13.4a5,5,0,0,1,.08.65.57.57,0,0,1-.1.37.37.37,0,0,1-.34,0,.51.51,0,0,1-.08-.37,4.55,4.55,0,0,1,.14-.56l-.59,0L11,34.65l3.31-.44.75-.09a3.34,3.34,0,0,1,2.26.55l.16.09a1.5,1.5,0,0,0,2-.2c-.25-.17-.22-.38,0-.61l1.37.48-.16.46c-.46-.32-.77,0-1.1.22a1.9,1.9,0,0,1-2.21.14c-.22-.13-.46-.24-.76-.39l-.07,1.32H12.77v-.09l1.86-.65C15.18,35.25,15.18,35.25,15.07,34.6Zm.55,0v.5l.69-.26v-.12Z"/><path class="cls-1" d="M22.11,46.92a1,1,0,0,0-.21-.11.37.37,0,0,0-.52.21c-.08.16-.11.32-.35.32s-.26-.15-.33-.31a.36.36,0,0,0-.54-.21c-.17.09-.33.14-.43,0a.55.55,0,0,1,0-.4.42.42,0,0,0-.26-.59.45.45,0,0,1-.23-.32c0-.09.12-.23.23-.28a.44.44,0,0,0,.25-.62.46.46,0,0,1,.08-.38.4.4,0,0,1,.36,0,.43.43,0,0,0,.62-.26c.05-.1.19-.23.28-.22a.49.49,0,0,1,.32.23.42.42,0,0,0,.62.24.45.45,0,0,1,.36.06.43.43,0,0,1,.08.35c-.12.35-.06.5.25.65a.46.46,0,0,1,.22.3.42.42,0,0,1-.21.3c-.33.17-.39.3-.25.64A.39.39,0,0,1,22.11,46.92Z"/><path class="cls-1" d="M2.88,26.24a.77.77,0,0,1-.75.75.71.71,0,0,1-.73-.68.76.76,0,0,1,.72-.78A.76.76,0,0,1,2.88,26.24Z"/><path class="cls-1" d="M1.39,24.18a.7.7,0,0,1,.71.7.75.75,0,0,1-.75.74.74.74,0,0,1-.72-.74A.76.76,0,0,1,1.39,24.18Z"/><path class="cls-1" d="M2.45,35.07a.8.8,0,0,1-.77-.78.65.65,0,0,1,.67-.64.81.81,0,0,1,.79.76A.66.66,0,0,1,2.45,35.07Z"/><path class="cls-1" d="M3.72,24.83a.81.81,0,0,1-.74.73.74.74,0,0,1-.73-.72.72.72,0,0,1,.74-.7A.76.76,0,0,1,3.72,24.83Z"/><path class="cls-1" d="M6.55,42.88a.7.7,0,0,1-.69.71.74.74,0,0,1-.74-.71.75.75,0,0,1,.74-.72A.73.73,0,0,1,6.55,42.88Z"/><path class="cls-1" d="M7.84,43.69a.74.74,0,0,1-.73.73.75.75,0,0,1-.7-.73A.77.77,0,0,1,7.18,43,.66.66,0,0,1,7.84,43.69Z"/><path class="cls-1" d="M4.19,35.58a.68.68,0,0,1-.66.67.78.78,0,0,1-.78-.72.63.63,0,0,1,.65-.66A.78.78,0,0,1,4.19,35.58Z"/><path class="cls-1" d="M4.72,34.15a.7.7,0,0,1-.69.64.75.75,0,0,1-.78-.72.63.63,0,0,1,.67-.63A.79.79,0,0,1,4.72,34.15Z"/><path class="cls-1" d="M2.67,16A.62.62,0,0,1,2,16.6a.75.75,0,0,1-.72-.74.63.63,0,0,1,.67-.64A.79.79,0,0,1,2.67,16Z"/><path class="cls-1" d="M7.89,42.06a.69.69,0,0,1-.7.73.65.65,0,0,1-.68-.63.7.7,0,0,1,.72-.72A.6.6,0,0,1,7.89,42.06Z"/><path class="cls-1" d="M3.57,17a.77.77,0,0,1-.78-.73.6.6,0,0,1,.62-.6.81.81,0,0,1,.78.73A.61.61,0,0,1,3.57,17Z"/><path class="cls-1" d="M42.86,10.59c-.11-.28,0-.48.21-.56a.48.48,0,0,1,.58.34c.05.25-.13.39-.45.43-.07.23-.09.47-.21.57a.61.61,0,0,1-.52,0c-.09-.05-.18-.32-.13-.39A2,2,0,0,1,42.86,10.59Z"/><path class="cls-1" d="M44.23,11.52c-.36,0-.56-.15-.56-.42a.35.35,0,0,1,.42-.36c.26,0,.46.16.42.42S44.31,11.43,44.23,11.52Z"/><path class="cls-1" d="M41.79,11.79c-.18-.25-.37-.4-.39-.57s.2-.36.44-.34.45.17.4.42S42,11.58,41.79,11.79Z"/><path class="cls-1" d="M43,12.42c-.35,0-.55-.15-.57-.41s.18-.38.42-.37.47.13.44.4S43.05,12.32,43,12.42Z"/><path class="cls-1" d="M42.55,9.15c.35.06.55.15.54.43s-.17.35-.4.34-.44-.16-.42-.39S42.47,9.25,42.55,9.15Z"/><path class="cls-1" d="M44,9.69c.38,0,.57.16.57.42a.34.34,0,0,1-.4.36c-.25,0-.47-.16-.44-.42S43.9,9.78,44,9.69Z"/><path class="cls-1" d="M42.15,10.6c-.36,0-.56-.13-.57-.41s.17-.36.39-.36.47.13.45.39S42.22,10.51,42.15,10.6Z"/><path class="cls-1" d="M37.57,54.21c.12-.34.22-.64.34-.93,0-.06.14-.15.16-.14a1.88,1.88,0,0,1,.6.46.56.56,0,0,1-.08.54,1.26,1.26,0,0,1-.63.19A1.48,1.48,0,0,1,37.57,54.21Z"/><path class="cls-1" d="M31.62,52.6a4.89,4.89,0,0,1,.64.28.57.57,0,0,1,.13.82.66.66,0,0,1-.84.1.31.31,0,0,1-.1-.24C31.49,53.26,31.55,53,31.62,52.6Z"/><path class="cls-1" d="M31.65,52.47l.2-1c.32.05.65.07.77.41a.68.68,0,0,1-.09.52C32.3,52.66,32,52.57,31.65,52.47Z"/><path class="cls-1" d="M11.21,54v-.93l.08,0,.58.76Z"/><path class="cls-1" d="M28.78,52.24l.48-1,.24,1.07Z"/><path class="cls-1" d="M30.88,39.89c.62-.07,1.28.25,1.72-.44v1.69c-.46-.72-1.1-.47-1.71-.5,0,.93,0,1.82,0,2.7,0,.21.27.4.44.61H29.69s0,0,0,0a1.27,1.27,0,0,0,.44-1.26c0-.65,0-1.3,0-2-.61.06-1.26-.26-1.72.42V39.34c.44.75,1.08.51,1.71.54-.06-.61.27-1.26-.42-1.73H31.4C30.68,38.59,30.92,39.24,30.88,39.89Zm-.2.54h1.43l0-.38H30.67V38.69c-.27-.09-.36,0-.36.23s0,.75,0,1.15H29.17c-.27,0-.33.1-.22.37h1.37v2.74c0,.28.12.31.36.22Z"/></g></g></svg>